HIERARCHY
ROOT Hips
{
	OFFSET 13.711707 103.226585 -2.860346
	CHANNELS 6 Xposition Yposition Zposition Xrotation Yrotation Zrotation
	JOINT Chest
	{
		OFFSET 2.517739 13.337593 1.387043
		CHANNELS 3 Xrotation Yrotation Zrotation
		JOINT Chest2
		{
			OFFSET -3.735543 20.491013 5.023003
			CHANNELS 3 Xrotation Yrotation Zrotation
			JOINT Chest3
			{
				OFFSET -1.085781 14.826950 1.342654
				CHANNELS 3 Xrotation Yrotation Zrotation
				JOINT Neck
				{
					OFFSET -0.548838 16.936081 3.388807
					CHANNELS 3 Xrotation Yrotation Zrotation
					JOINT Head
					{
						OFFSET -3.589681 9.179428 3.560884
						CHANNELS 3 Xrotation Yrotation Zrotation
						End Site
						{
							OFFSET -3.544423 9.214478 3.515414
						}
					}
				}
				JOINT LeftCollar
				{
					OFFSET 1.971386 12.184525 7.032438
					CHANNELS 3 Xrotation Yrotation Zrotation
					JOINT LeftUpArm
					{
						OFFSET 17.288994 2.998871 0.772516
						CHANNELS 3 Xrotation Yrotation Zrotation
						JOINT LeftLowArm
						{
							OFFSET 28.977489 6.466766 16.069035
							CHANNELS 3 Xrotation Yrotation Zrotation
							JOINT LeftHand
							{
								OFFSET 24.995922 3.148254 16.316837
								CHANNELS 3 Xrotation Yrotation Zrotation
								End Site
								{
									OFFSET 5.463013 0.688080 3.566132
								}
							}
						}
					}
				}
				JOINT RightCollar
				{
					OFFSET -5.483938 12.717361 3.162899
					CHANNELS 3 Xrotation Yrotation Zrotation
					JOINT RightUpArm
					{
						OFFSET -8.952862 3.688873 -14.653833
						CHANNELS 3 Xrotation Yrotation Zrotation
						JOINT RightLowArm
						{
							OFFSET -27.096754 8.586426 -18.214653
							CHANNELS 3 Xrotation Yrotation Zrotation
							JOINT RightHand
							{
								OFFSET -26.644745 8.386261 -10.985559
								CHANNELS 3 Xrotation Yrotation Zrotation
								End Site
								{
									OFFSET -5.823490 1.832870 -2.400997
								}
							}
						}
					}
				}
			}
		}
	}
	JOINT LeftUpLeg
	{
		OFFSET 8.239137 -2.106758 5.300694
		CHANNELS 3 Xrotation Yrotation Zrotation
		JOINT LeftLowLeg
		{
			OFFSET -0.643332 -47.349655 1.259512
			CHANNELS 3 Xrotation Yrotation Zrotation
			JOINT LeftFoot
			{
				OFFSET 0.939413 -42.359474 -14.330421
				CHANNELS 3 Xrotation Yrotation Zrotation
				JOINT LeftToe
				{
					OFFSET -8.350841 -15.902189 15.392975
					CHANNELS 3 Xrotation Yrotation Zrotation
					End Site
					{
						OFFSET -7.971971 -1.497803 22.220783
					}
				}
			}
		}
	}
	JOINT RightUpLeg
	{
		OFFSET -8.239176 2.106567 -5.300715
		CHANNELS 3 Xrotation Yrotation Zrotation
		JOINT RightLowLeg
		{
			OFFSET -41.176517 -0.402016 23.416746
			CHANNELS 3 Xrotation Yrotation Zrotation
			JOINT RightFoot
			{
				OFFSET -15.119644 -41.913555 3.902575
				CHANNELS 3 Xrotation Yrotation Zrotation
				JOINT RightToe
				{
					OFFSET -18.224281 -3.568981 14.652462
					CHANNELS 3 Xrotation Yrotation Zrotation
					End Site
					{
						OFFSET -16.624832 12.030884 11.765587
					}
				}
			}
		}
	}
}
MOTION
Frames: 7
Frame Time: 0.033333
2.353960 105.974724 -1.111721 -1.694988 32.065723 13.555555 -9.334875 4.639120 -16.348584 3.448889 0.689665 2.815297 0.906290 -3.664038 1.499483 -8.178065 12.631814 -9.738796 0.000000 0.000000 -0.000002 23.808276 0.047555 -29.799234 32.017704 -15.439294 -47.027922 13.005334 -8.085284 13.650208 -0.000000 -0.000002 -0.000003 -9.503222 -6.073192 32.835243 -19.458955 -4.237438 55.865067 11.455416 8.509797 11.952762 0.000001 -0.000000 0.000001 4.924483 -0.597383 -5.052307 -8.161796 5.072657 1.788074 1.968844 -11.269548 -1.585125 0.000001 0.000001 -0.000001 35.553249 7.571619 67.531132 -31.186316 1.978844 -48.123665 20.911932 27.673748 -9.624227 -0.000003 0.000003 -0.000003 
2.349262 105.977058 -1.106325 -1.865198 31.457164 13.626062 -9.486839 4.758579 -16.598852 3.836218 0.815297 2.891780 0.736096 -3.491667 1.634967 -8.036194 12.788248 -9.777040 0.000000 -0.000001 -0.000000 23.765276 0.314107 -29.939134 32.029776 -15.319935 -46.935322 13.273094 -7.806508 13.396359 0.000000 0.000001 -0.000000 -9.585508 -6.289366 32.910474 -19.540517 -3.962376 55.914128 11.564449 8.299231 12.093308 0.000002 0.000002 -0.000002 5.300036 -0.564780 -4.965362 -8.454026 5.297720 1.581887 2.253246 -11.152686 -1.394432 0.000001 0.000001 -0.000000 36.006637 7.549454 67.853736 -31.474543 2.313246 -48.336542 21.246188 28.265625 -9.946463 -0.000003 0.000001 0.000002 
2.340554 105.976074 -1.098902 -1.876534 31.118943 13.546079 -9.439406 4.717636 -16.507842 3.658880 0.895576 2.653674 0.822053 -3.423900 1.798617 -8.031049 12.942321 -10.014738 -0.000001 -0.000006 -0.000002 23.800641 0.070511 -29.905109 32.018271 -15.237969 -46.963565 13.348698 -7.836775 13.451892 -0.000001 0.000002 -0.000002 -9.618868 -6.153068 33.019904 -19.625381 -3.945540 55.961003 11.588980 8.475524 12.138791 0.000001 0.000001 0.000002 5.346512 -0.531544 -4.820314 -8.400161 5.424104 1.607903 2.282544 -11.233662 -1.365732 0.000001 0.000001 -0.000002 36.191134 7.633968 68.187117 -31.824747 2.478665 -48.498950 21.400236 28.725529 -10.459707 0.000003 0.000003 -0.000004 
2.333022 105.976814 -1.093214 -1.596394 31.300322 13.499726 -9.834843 4.835677 -16.692144 3.898256 0.807676 2.921643 0.703736 -3.583000 1.563571 -8.085124 12.939021 -10.084269 -0.000001 -0.000002 -0.000003 23.782362 0.572162 -29.981593 32.040008 -15.488533 -46.852591 13.522773 -7.826848 13.483739 -0.000001 0.000001 -0.000001 -9.570923 -6.240574 33.025433 -19.577101 -4.041372 56.061650 11.803842 8.759146 12.040964 -0.000002 -0.000002 -0.000000 4.849142 -0.456642 -4.987842 -8.074004 5.325074 1.774612 2.144913 -11.457977 -1.530063 0.000001 0.000003 -0.000001 36.081752 7.677495 68.189235 -31.945888 2.629718 -48.556580 21.525876 28.576702 -10.360223 0.000002 0.000001 0.000000 
2.328859 105.980942 -1.090496 -1.944644 31.145396 13.544482 -9.460983 4.704757 -16.488483 3.985684 0.850574 2.926489 0.347405 -3.206752 1.433129 -8.213696 12.881718 -10.077019 0.000000 -0.000003 -0.000002 23.838094 0.082305 -29.813024 32.102456 -15.407199 -46.879075 13.585987 -7.794270 13.462753 0.000005 0.000001 -0.000000 -9.664702 -6.969334 32.737517 -19.439678 -4.445006 55.998057 11.796374 8.765740 12.205774 -0.000001 -0.000002 -0.000002 5.277704 -0.516585 -4.816547 -8.254330 5.371641 1.668031 2.265248 -11.421109 -1.462462 0.000001 0.000001 -0.000001 36.350622 7.681062 68.328666 -31.908499 2.561869 -48.576036 21.524703 28.759283 -10.507408 -0.000001 0.000000 -0.000002 
2.318254 105.982033 -1.083224 -1.750187 31.139666 13.487697 -9.782293 4.823343 -16.745022 4.036032 0.835175 3.051081 0.539727 -3.373415 1.513495 -8.263055 12.910920 -10.043428 0.000000 -0.000003 -0.000002 23.820160 0.491996 -29.673180 32.207450 -15.643531 -46.958196 13.548612 -7.723311 13.382157 0.000004 -0.000002 0.000002 -9.394281 -6.367069 32.809469 -19.585791 -4.232796 56.395919 11.752333 8.629992 11.891074 -0.000000 0.000001 -0.000001 5.152023 -0.570567 -4.772186 -8.282588 5.361092 1.604769 2.339672 -11.054626 -1.235325 0.000001 -0.000001 -0.000002 35.945711 7.733240 68.102942 -31.822381 2.405888 -48.546082 21.571131 28.517276 -10.284669 -0.000000 0.000003 -0.000000 
2.308393 105.979477 -1.078942 -1.670602 31.203716 13.469778 -9.665047 4.779363 -16.667405 3.619554 0.901733 2.712181 0.847943 -3.484682 1.728079 -8.425225 12.881542 -10.073329 0.000000 -0.000005 -0.000003 23.818190 0.649650 -29.863062 32.063066 -15.621785 -46.824973 13.442955 -7.834874 13.172444 -0.000002 -0.000002 -0.000000 -9.496921 -6.667731 32.684245 -19.605394 -4.071141 56.271173 11.372185 8.586331 12.069993 -0.000004 0.000001 0.000001 5.014636 -0.607234 -4.789487 -8.137259 5.340009 1.601939 2.203604 -10.795262 -1.176015 0.000002 0.000001 0.000001 35.987498 7.762834 68.103017 -31.824344 2.517444 -48.471633 21.334670 28.487399 -10.310042 -0.000000 0.000002 -0.000003 
